<svg xmlns="http://www.w3.org/2000/svg" viewBox="0 0 1600 1120"><rect width="1600" height="1120" fill="#0b0f17"/><text x="60" y="86" fill="#c8a45c" font-family="monospace" font-size="22" letter-spacing="5">DIMIA CONSULTING — PALETA</text><rect x="60" y="110" width="1480" height="1" fill="#2f3a4d"/><rect x="60" y="160" width="360" height="110" fill="#0b0f17"/><text x="60" y="302" fill="#eef1f7" font-family="Helvetica,Arial" font-weight="bold" font-size="22">Tinta profunda</text><text x="60" y="330" fill="#97a2b5" font-family="monospace" font-size="19">#0B0F17</text><text x="60" y="354" fill="#66718a" font-family="Helvetica,Arial" font-size="17">Fondo maestro</text><rect x="460" y="160" width="360" height="110" fill="#111723"/><text x="460" y="302" fill="#eef1f7" font-family="Helvetica,Arial" font-weight="bold" font-size="22">Panel</text><text x="460" y="330" fill="#97a2b5" font-family="monospace" font-size="19">#111723</text><text x="460" y="354" fill="#66718a" font-family="Helvetica,Arial" font-size="17">Tarjeta y tabla</text><rect x="860" y="160" width="360" height="110" fill="#212a3a"/><text x="860" y="302" fill="#eef1f7" font-family="Helvetica,Arial" font-weight="bold" font-size="22">Linea</text><text x="860" y="330" fill="#97a2b5" font-family="monospace" font-size="19">#212A3A</text><text x="860" y="354" fill="#66718a" font-family="Helvetica,Arial" font-size="17">Filete 1 px</text><rect x="1260" y="160" width="360" height="110" fill="#eef1f7"/><text x="1260" y="302" fill="#eef1f7" font-family="Helvetica,Arial" font-weight="bold" font-size="22">Hueso</text><text x="1260" y="330" fill="#97a2b5" font-family="monospace" font-size="19">#EEF1F7</text><text x="1260" y="354" fill="#66718a" font-family="Helvetica,Arial" font-size="17">Texto principal</text><rect x="60" y="390" width="360" height="110" fill="#97a2b5"/><text x="60" y="532" fill="#eef1f7" font-family="Helvetica,Arial" font-weight="bold" font-size="22">Acero</text><text x="60" y="560" fill="#97a2b5" font-family="monospace" font-size="19">#97A2B5</text><text x="60" y="584" fill="#66718a" font-family="Helvetica,Arial" font-size="17">Texto secundario</text><rect x="460" y="390" width="360" height="110" fill="#66718a"/><text x="460" y="532" fill="#eef1f7" font-family="Helvetica,Arial" font-weight="bold" font-size="22">Acero 2</text><text x="460" y="560" fill="#97a2b5" font-family="monospace" font-size="19">#66718A</text><text x="460" y="584" fill="#66718a" font-family="Helvetica,Arial" font-size="17">Rotulos y pies</text><rect x="860" y="390" width="360" height="110" fill="#6e9bf5"/><text x="860" y="532" fill="#eef1f7" font-family="Helvetica,Arial" font-weight="bold" font-size="22">Azul Dimia</text><text x="860" y="560" fill="#97a2b5" font-family="monospace" font-size="19">#6E9BF5</text><text x="860" y="584" fill="#66718a" font-family="Helvetica,Arial" font-size="17">El acento</text><rect x="1260" y="390" width="360" height="110" fill="#1f47c4"/><text x="1260" y="532" fill="#eef1f7" font-family="Helvetica,Arial" font-weight="bold" font-size="22">Azul hondo</text><text x="1260" y="560" fill="#97a2b5" font-family="monospace" font-size="19">#1F47C4</text><text x="1260" y="584" fill="#66718a" font-family="Helvetica,Arial" font-size="17">Acento en papel</text><rect x="60" y="620" width="360" height="110" fill="#c8a45c"/><text x="60" y="762" fill="#eef1f7" font-family="Helvetica,Arial" font-weight="bold" font-size="22">Laton</text><text x="60" y="790" fill="#97a2b5" font-family="monospace" font-size="19">#C8A45C</text><text x="60" y="814" fill="#66718a" font-family="Helvetica,Arial" font-size="17">Jerarquia y ceremonia</text><rect x="460" y="620" width="360" height="110" fill="#f2f4f8"/><text x="460" y="762" fill="#eef1f7" font-family="Helvetica,Arial" font-weight="bold" font-size="22">Papel</text><text x="460" y="790" fill="#97a2b5" font-family="monospace" font-size="19">#F2F4F8</text><text x="460" y="814" fill="#66718a" font-family="Helvetica,Arial" font-size="17">Superficie clara</text><rect x="860" y="620" width="360" height="110" fill="#3fb68b"/><text x="860" y="762" fill="#eef1f7" font-family="Helvetica,Arial" font-weight="bold" font-size="22">Confirmada</text><text x="860" y="790" fill="#97a2b5" font-family="monospace" font-size="19">#3FB68B</text><text x="860" y="814" fill="#66718a" font-family="Helvetica,Arial" font-size="17">Estado</text><rect x="1260" y="620" width="360" height="110" fill="#e0a838"/><text x="1260" y="762" fill="#eef1f7" font-family="Helvetica,Arial" font-weight="bold" font-size="22">Pendiente</text><text x="1260" y="790" fill="#97a2b5" font-family="monospace" font-size="19">#E0A838</text><text x="1260" y="814" fill="#66718a" font-family="Helvetica,Arial" font-size="17">Estado</text><rect x="60" y="850" width="360" height="110" fill="#e2685c"/><text x="60" y="992" fill="#eef1f7" font-family="Helvetica,Arial" font-weight="bold" font-size="22">Conflicto</text><text x="60" y="1020" fill="#97a2b5" font-family="monospace" font-size="19">#E2685C</text><text x="60" y="1044" fill="#66718a" font-family="Helvetica,Arial" font-size="17">Estado</text><text x="60" y="1080" fill="#66718a" font-family="monospace" font-size="17" letter-spacing="3">72% TINTA · 20% HUESO Y ACERO · 6% AZUL · 2% LATON</text></svg>